<?xml version="1.0" standalone="no"?>
<!DOCTYPE svg PUBLIC "-//W3C//DTD SVG 20010904//EN"
 "http://www.w3.org/TR/2001/REC-SVG-20010904/DTD/svg10.dtd">
<svg version="1.0" xmlns="http://www.w3.org/2000/svg"
 width="2000.000000pt" height="2000.000000pt" viewBox="0 0 2000.000000 2000.000000"
 preserveAspectRatio="xMidYMid meet">

<g transform="translate(0.000000,2000.000000) scale(0.100000,-0.100000)"
fill="#000000" stroke="none">
<path d="M9215 17723 c-163 -13 -290 -28 -410 -49 -1113 -195 -2086 -909
-2610 -1917 -165 -317 -277 -636 -344 -977 -23 -120 -61 -386 -61 -431 0 -4
-111 -9 -247 -12 -187 -4 -278 -10 -369 -26 -726 -125 -1348 -525 -1749 -1126
-107 -161 -176 -286 -239 -436 -490 -1171 -78 -2511 987 -3206 313 -204 648
-330 1049 -395 129 -21 167 -22 1156 -25 654 -3 1022 -1 1022 6 0 5 -11 56
-24 113 -21 88 -41 209 -62 386 l-5 42 -922 0 c-551 0 -958 4 -1012 10 -619
69 -1162 401 -1505 918 -303 456 -409 1009 -299 1557 60 301 215 627 416 875
80 98 268 281 365 353 405 302 918 451 1403 408 104 -10 484 -76 556 -97 15
-4 17 26 21 333 6 391 21 522 93 809 137 540 397 1001 794 1408 494 505 1089
805 1806 913 94 14 183 18 415 18 259 0 314 -3 450 -23 693 -105 1301 -415
1780 -908 155 -160 235 -259 358 -444 211 -316 358 -660 448 -1050 21 -91 41
-169 45 -173 4 -5 83 -13 177 -17 94 -5 214 -16 268 -25 442 -71 826 -267
1139 -580 175 -175 289 -337 401 -570 89 -187 138 -346 185 -602 12 -67 25
-127 29 -133 5 -8 52 -5 161 12 267 39 502 29 709 -29 559 -157 983 -629 1081
-1205 29 -169 23 -421 -14 -578 -70 -295 -196 -519 -412 -736 -217 -218 -449
-345 -760 -415 l-100 -23 -1421 -3 -1421 -4 -7 -86 c-10 -122 -49 -333 -82
-445 -5 -17 66 -18 1393 -18 896 0 1439 4 1513 11 671 61 1262 436 1601 1016
274 469 349 1032 208 1563 -151 570 -551 1055 -1084 1316 -244 119 -492 185
-776 205 -85 6 -157 14 -160 17 -3 4 -23 57 -43 117 -119 348 -320 674 -585
947 -415 429 -907 677 -1532 773 -35 5 -36 6 -63 98 -73 245 -231 588 -384
833 -668 1074 -1857 1726 -3126 1712 -89 -1 -179 -3 -201 -5z"/>
<path d="M9655 11895 c-688 -97 -1272 -512 -1581 -1124 -203 -402 -266 -836
-188 -1291 111 -650 522 -1203 1114 -1500 279 -140 538 -205 856 -217 815 -30
1570 421 1929 1152 148 299 215 600 215 952 -1 765 -451 1482 -1147 1827 -188
93 -367 152 -583 191 -130 24 -479 29 -615 10z m850 -1850 c311 -505 563 -920
561 -922 -1 -2 -258 84 -571 191 l-567 194 -566 -194 c-312 -106 -568 -191
-570 -189 -3 2 251 420 564 929 313 509 572 922 577 917 4 -4 261 -421 572
-926z"/>
<path d="M7757 5762 l-1067 -1067 0 -1288 0 -1287 240 0 240 0 0 1190 0 1190
633 0 c599 0 638 1 711 20 105 26 193 72 273 139 76 64 160 179 193 267 46
123 49 170 50 822 l0 612 1454 0 c982 0 1480 -3 1533 -11 350 -48 619 -316
663 -661 6 -54 10 -681 10 -1825 l0 -1743 235 0 235 0 -3 1833 -2 1832 -22 80
c-71 265 -179 453 -355 620 -145 139 -300 230 -489 290 -178 56 -138 55 -1869
55 l-1595 0 -1068 -1068z"/>
<path d="M9547 4995 c-157 -55 -164 -267 -12 -336 38 -18 93 -19 1130 -18 821
0 1098 3 1123 13 69 25 122 101 122 176 -1 68 -67 150 -138 170 -24 6 -402 10
-1112 10 -884 -1 -1082 -3 -1113 -15z"/>
<path d="M8078 4080 c-146 -44 -174 -243 -46 -327 l42 -28 1835 -3 c2048 -3
1886 -8 1954 67 87 96 38 255 -90 290 -46 13 -3653 14 -3695 1z"/>
<path d="M8067 3156 c-138 -50 -159 -241 -35 -323 l42 -28 1829 -3 c1257 -1
1841 1 1868 8 87 24 148 116 135 205 -9 55 -53 110 -111 136 -38 18 -121 19
-1865 18 -1514 0 -1832 -2 -1863 -13z"/>
</g>
</svg>
